PathFileType	4	(X/Y/Z)	pose_F01_0-96.trc
DataRate	CameraRate	NumFrames	NumMarkers	Units	OrigDataRate	OrigDataStartFrame	OrigNumFrames
30	30	9	21	m	30	48	96
Frame#	Time	CHip			RHip			RKnee			RAnkle			RBigToe			RSmallToe			RHeel			LHip			LKnee			LAnkle			LBigToe			LSmallToe			LHeel			Neck			Nose			RShoulder			RElbow			RWrist			LShoulder			LElbow			LWrist			
		X1	Y1	Z1	X2	Y2	Z2	X3	Y3	Z3	X4	Y4	Z4	X5	Y5	Z5	X6	Y6	Z6	X7	Y7	Z7	X8	Y8	Z8	X9	Y9	Z9	X10	Y10	Z10	X11	Y11	Z11	X12	Y12	Z12	X13	Y13	Z13	X14	Y14	Z14	X15	Y15	Z15	X16	Y16	Z16	X17	Y17	Z17	X18	Y18	Z18	X19	Y19	Z19	X20	Y20	Z20	X21	Y21	Z21	
48	1.6	-0.23275073032560956	1.8434710786676292	-0.576978862861746	-0.2420957249669764	1.8447438076196412	-0.5070374112294284	-0.3000953713240226	1.7031223234611275	-0.49004679483585784	-0.28792533666879694	1.554088188055137	-0.45765969902961984							-0.25863356994696884	1.540605207281168	-0.47457187921001304	-0.2206499178794334	1.843558474242215	-0.6321118152408962	-0.23516657685783593	1.6840428789862045	-0.630162605599851	-0.17752700907838648	1.5765454923183513	-0.6040769797511624	-0.2012277015557591	1.5347072818498613	-0.6345097117913648	-0.1844183673968524	1.5405635729060014	-0.6479247887051492	-0.16585795149824115	1.5664719875847637	-0.5851136383687024	-0.29061584561745346	2.0117929375868346	-0.5974452475486242	-0.35904885301867256	2.073319068631163	-0.5995281482034557	-0.2852321652117546	2.0071100002229834	-0.5116813350607339	-0.22078975680593244	1.9174315087439524	-0.4973395951313134	-0.23453595682066114	1.843893304392463	-0.4305857907518094	-0.29337945526672604	2.016359297972543	-0.6785298187869496	-0.3873381334701971	1.9388173553789905	-0.67440006832586	-0.5135615186459106	1.8991767985604404	-0.6753472844922537
49	1.6333333333333333	-0.2329048889811111	1.8450689100322102	-0.5772283757987748	-0.2452537844245829	1.8475198562931152	-0.5084845409074115	-0.30017352606204745	1.703036188124288	-0.4900228648354533	-0.28792533666879694	1.554088188055137	-0.45765969902961984							-0.25863356994696884	1.540605207281168	-0.47457187921001304	-0.221560288109429	1.8439658953749842	-0.6352837289098979	-0.23519541581130096	1.6840421687674327	-0.6300470425223358	-0.177236517074856	1.5771503077592326	-0.604880761258956	-0.20590620454337458	1.534553957693682	-0.638308596988975	-0.1878810828227395	1.5405753241134583	-0.6570067395114704	-0.16580506071381912	1.5686791312116637	-0.5857160038520758	-0.28854927065438446	2.013409838190716	-0.5999739166595837	-0.35888328156336924	2.0760484109925947	-0.5998471671926807	-0.2811874563751761	2.0097991106885673	-0.516430434103881	-0.22078975680593244	1.9174315087439524	-0.4973395951313134	-0.23453595682066114	1.843893304392463	-0.4305857907518094	-0.290375239211668	2.018961258976922	-0.6783080096027134	-0.37757908134458934	1.9430808903376686	-0.6804281934367145	-0.5079730743383798	1.9124213542461355	-0.6806611519263011
50	1.6666666666666667	-0.2347019430473191	1.8492841220551177	-0.5756743307614819	-0.243128138625346	1.8516762281216756	-0.5112702093658043	-0.29996127331012834	1.7042717699414744	-0.49041991677020974	-0.28792533666879694	1.554088188055137	-0.45765969902961984							-0.25863356994696884	1.540605207281168	-0.47457187921001304	-0.22241360634230595	1.8496348482559957	-0.6307067002135429	-0.23510478628243964	1.6868371876484514	-0.6304093199905063	-0.17768809950249098	1.577119942761474	-0.6040593342576731	-0.20531426337105715	1.5348486507399317	-0.6389167361561572	-0.1862801322163217	1.539727273824972	-0.6547481050734854	-0.16508741302588595	1.5669055092357713	-0.581822926076691	-0.2893543648338475	2.0164124046484497	-0.6032090312251042	-0.35578695288803786	2.0772713920138943	-0.5988506125789496	-0.28420719175040887	2.0143416906863627	-0.5186927108700498	-0.22078975680593244	1.9174315087439524	-0.4973395951313134	-0.23453595682066114	1.843893304392463	-0.4305857907518094	-0.28945948194093624	2.0181902663092828	-0.6754797401821789	-0.3734307780611181	1.942315628406814	-0.6846094498295143	-0.493324013601052	1.924328785028386	-0.690914772027148
51	1.7	-0.23289787415497562	1.8452946996883284	-0.5772360082978072	-0.24341225118068288	1.8488526740521647	-0.5108124805088982	-0.30234002277142036	1.7038147213012633	-0.488024243342526	-0.28792533666879694	1.554088188055137	-0.45765969902961984							-0.25863356994696884	1.540605207281168	-0.47457187921001304	-0.22059301915069543	1.8465623391842878	-0.6325770631620925	-0.2344815768239062	1.6867441085973802	-0.6269513705424883	-0.17718406541985376	1.5741833436733346	-0.6044870757749888	-0.20228384082106327	1.5352478757379822	-0.6378631029077458	-0.18637531095717244	1.541138621827607	-0.6544785655010197	-0.1629194723832528	1.5639666104429233	-0.583701475565624	-0.2895702498059329	2.014911673785611	-0.6033242259525825	-0.3588971464042692	2.0761026884964076	-0.5998875595961703	-0.2822301762355874	2.0145264032764247	-0.5208912823777606	-0.2972100424798315	1.9206783123212339	-0.435404776531423	-0.23453595682066114	1.843893304392463	-0.4305857907518094	-0.2926372770724684	2.0176435416170686	-0.6763416985086073	-0.370451747118141	1.939549462793957	-0.6836702142918458	-0.4786749528637242	1.936236215810636	-0.7011683921279951
52	1.7333333333333334	-0.23279122543762715	1.8448949382606554	-0.5771642809241119	-0.24045603994646694	1.8461674817625757	-0.5094488276897869	-0.30389539464476995	1.7043846095120756	-0.4907790132728625	-0.28792533666879694	1.554088188055137	-0.45765969902961984							-0.25863356994696884	1.540605207281168	-0.47457187921001304	-0.21982056445151751	1.8443708812762407	-0.6292028732905525	-0.2359197519172058	1.6839307058865407	-0.6290967484522526	-0.17749320132075327	1.576518823585499	-0.6039217189043681	-0.2031875957556761	1.5339949221634106	-0.6324097813239332	-0.18517247528848585	1.5396004130285652	-0.6511356697866351	-0.16407008785281083	1.5669428848352307	-0.5785014490142059	-0.2919855143462441	2.0105379552136773	-0.6008162690228499	-0.3624500606961822	2.0718289847530578	-0.601158963494422	-0.2844461109708956	2.0093751339023127	-0.5178315018212674	-0.2794551071134665	1.9175015125944614	-0.4515574132530467	-0.23453595682066114	1.843893304392463	-0.4305857907518094	-0.29801818626092763	2.0147552593976013	-0.674691155254212	-0.37491592927734557	1.928011960222985	-0.678177291438116	-0.4772324054773603	1.9182146523200498	-0.7073919628843783
53	1.7666666666666666	-0.23532799739292615	1.8397215162392553	-0.5741450899956034	-0.24673105102920848	1.8419622542170422	-0.5022538567347999	-0.3037805846340767	1.7032207188200335	-0.49081173614929313	-0.28792533666879694	1.554088188055137	-0.45765969902961984							-0.25863356994696884	1.540605207281168	-0.47457187921001304	-0.22016609741496876	1.8407913950569963	-0.6285816774241836	-0.24020638121799714	1.679667414021839	-0.6245899148522603	-0.1752766493585579	1.5738847325762444	-0.5978414925300527	-0.20102170913178824	1.532340501755528	-0.6257368072141277	-0.18306730665573823	1.5381126385403887	-0.6444638210153633	-0.1611096612535828	1.5673609086732672	-0.5772903852501228	-0.29862857819919014	2.0030910198910785	-0.5937520923820707	-0.3710728346885643	2.064434905725669	-0.5918066466267177	-0.29182215602259426	2.0021037025933173	-0.5135994532376097	-0.2617001717471015	1.914324712867689	-0.46771004997467036	-0.23453595682066114	1.843893304392463	-0.4305857907518094	-0.30378088640516826	2.005319767921102	-0.6725851657501224	-0.38381219569318864	1.9268286057210597	-0.6695891722440781	-0.49962957187290935	1.8888201614329334	-0.6858402901237286
54	1.8	-0.23310883252704087	1.838208532512695	-0.5675755831115948	-0.24543440755216597	1.8376729956709088	-0.49830971448249994	-0.3112887430387011	1.698020975595042	-0.48242588561029964	-0.28792533666879694	1.554088188055137	-0.45765969902961984							-0.25863356994696884	1.540605207281168	-0.47457187921001304	-0.2213869561906816	1.8375197223193134	-0.6259085220347466	-0.24323105678759252	1.678173090621837	-0.6256370045597269	-0.1796637231686789	1.579501756659652	-0.6022198384692444	-0.1994299777002296	1.5353186654378908	-0.6279468520564716	-0.1833211158730012	1.5425533612978177	-0.645240142701892	-0.16494250888164086	1.5696096374603687	-0.5821673359227463	-0.3038013154527698	1.9939119470462487	-0.5904773646788799	-0.37643413396762143	2.056925109460225	-0.5891168750277259	-0.2952573005830037	1.9956621665417307	-0.5137771836805253	-0.24394523638073642	1.9111479131409166	-0.48386268669629406	-0.2515568198218438	1.832688115491643	-0.4147493152495395	-0.30927269323379175	1.996418806107593	-0.6699713397056376	-0.394979805810868	1.9219012612848607	-0.683062443061128	-0.5211345720551196	1.8648178486190838	-0.6919425693542925
55	1.8333333333333333	-0.2370016511968253	1.8404547525505652	-0.5721610559586119	-0.248280483960009	1.8391252431391691	-0.4996093240222271	-0.3136227201698746	1.7002051382334273	-0.4801178143501067	-0.28792533666879694	1.554088188055137	-0.45765969902961984							-0.25863356994696884	1.540605207281168	-0.47457187921001304	-0.22276300100487628	1.838619976956602	-0.629159023782801	-0.24209031833060513	1.6782973105311723	-0.6309867518424699	-0.17947819191594871	1.580925388871153	-0.6025486368284275	-0.19929222987953285	1.5363608987390007	-0.6199188855199999	-0.18226113411129402	1.544957436282296	-0.64230143282272	-0.1669727887955003	1.5716113476385178	-0.5804645866347206	-0.30377546129370403	1.9935646083575105	-0.5901921848980431	-0.3784533197208417	2.0559368063947847	-0.5946253061704285	-0.30099958735777876	1.9973618157995092	-0.5153335802360293	-0.2591776076457395	1.9126315399124336	-0.47319682633772225	-0.28157586303592275	1.8482229989796646	-0.4336766557600012	-0.311038576186715	1.9972754317614014	-0.6759668898026481	-1.0342924955484705	1.831988791381293	-0.055447182597460336	-0.8903379124994704	1.7866960322105674	-0.31901172681818746
56	1.8666666666666667	-0.2412196463126975	1.8399099530762455	-0.5677877896437233	-0.2523966712689338	1.839203383223628	-0.5037943611970869	-0.31536496087172583	1.6971921937146006	-0.4782275855929644	-0.3198901268261671	1.5529257665322838	-0.4558883545983432							-0.3073493451714282	1.5448925193946546	-0.45405206573772255	-0.22504388684245738	1.839356923308707	-0.6269772090599018	-0.24261105031017838	1.683314597598157	-0.6267596728905926	-0.1799247291468149	1.5781212938953295	-0.6016903760288143	-0.20041784119138048	1.5340875606398632	-0.6224414191631928	-0.18460783531724514	1.5396864759528386	-0.6390685440817637	-0.16591341440367566	1.5695688034241888	-0.5855150271989821	-0.30339490159618293	2.0002907195334965	-0.5909123458856724	-0.3793440506162283	2.057550964673546	-0.597584641706664	-0.3038739476570144	2.0000196527191045	-0.5166487191343573	-0.2744099789107426	1.9141151666839509	-0.4625309659791505	-0.3115949062500017	1.8637578824676861	-0.4526039962704629	-0.3062394990133934	2.0034712041517233	-0.6804609333609444	-1.0435679028310378	1.8360390959149586	-0.03743669856191343	-0.5149746270687076	1.871429656584915	-0.6724598432076665
